<svg width="32" height="32" viewBox="0 0 32 32" fill="none" xmlns="http://www.w3.org/2000/svg">
<path fill-rule="evenodd" clip-rule="evenodd" d="M7.56967 7.16393C7.34559 7.16393 7.16393 7.34559 7.16393 7.56967V24.4303C7.16393 24.6544 7.34559 24.8361 7.56967 24.8361H24.4303C24.6544 24.8361 24.8361 24.6544 24.8361 24.4303V7.56967C24.8361 7.34559 24.6544 7.16393 24.4303 7.16393H7.56967ZM5 7.56967C5 6.15048 6.15048 5 7.56967 5H24.4303C25.8495 5 27 6.15048 27 7.56967V24.4303C27 25.8495 25.8495 27 24.4303 27H7.56967C6.15048 27 5 25.8495 5 24.4303V7.56967ZM8.96721 10.0492C8.96721 9.45163 9.45163 8.96721 10.0492 8.96721H14.0164C14.6139 8.96721 15.0984 9.45163 15.0984 10.0492V14.0164C15.0984 14.6139 14.6139 15.0984 14.0164 15.0984H10.0492C9.45163 15.0984 8.96721 14.6139 8.96721 14.0164V10.0492ZM11.1311 11.1311V12.9344H12.9344V11.1311H11.1311ZM16.9016 10.0492C16.9016 9.45163 17.3861 8.96721 17.9836 8.96721H21.9508C22.5484 8.96721 23.0328 9.45163 23.0328 10.0492C23.0328 10.6467 22.5484 11.1311 21.9508 11.1311H17.9836C17.3861 11.1311 16.9016 10.6467 16.9016 10.0492ZM16.9016 14.0164C16.9016 13.4188 17.3861 12.9344 17.9836 12.9344H21.9508C22.5484 12.9344 23.0328 13.4188 23.0328 14.0164C23.0328 14.6139 22.5484 15.0984 21.9508 15.0984H17.9836C17.3861 15.0984 16.9016 14.6139 16.9016 14.0164ZM8.96721 17.9836C8.96721 17.3861 9.45163 16.9016 10.0492 16.9016H21.9508C22.5484 16.9016 23.0328 17.3861 23.0328 17.9836C23.0328 18.5812 22.5484 19.0656 21.9508 19.0656H10.0492C9.45163 19.0656 8.96721 18.5812 8.96721 17.9836ZM8.96721 21.9508C8.96721 21.3533 9.45163 20.8689 10.0492 20.8689H21.9508C22.5484 20.8689 23.0328 21.3533 23.0328 21.9508C23.0328 22.5484 22.5484 23.0328 21.9508 23.0328H10.0492C9.45163 23.0328 8.96721 22.5484 8.96721 21.9508Z" fill="#121212"/>
</svg>
