<svg width="114" height="27" viewBox="0 0 114 27" fill="none" xmlns="http://www.w3.org/2000/svg">
<circle opacity="0.4" cx="13.5" cy="13.5" r="13.2" stroke="black" stroke-width="0.6"/>
<path opacity="0.4" d="M53.7 13.5C53.7 17.0981 51.5395 20.3908 47.9743 22.7973C44.4109 25.2026 39.4711 26.7 34 26.7C28.5289 26.7 23.5891 25.2026 20.0257 22.7973C16.4605 20.3908 14.3 17.0981 14.3 13.5C14.3 9.90185 16.4605 6.6092 20.0257 4.20271C23.5891 1.79742 28.5289 0.3 34 0.3C39.4711 0.3 44.4109 1.79742 47.9743 4.20271C51.5395 6.6092 53.7 9.90185 53.7 13.5Z" stroke="black" stroke-width="0.6"/>
<path opacity="0.4" d="M113.7 13.5C113.7 15.2359 112.671 16.9346 110.707 18.5215C108.746 20.1062 105.89 21.5467 102.334 22.7621C95.2244 25.1918 85.3837 26.7 74.5 26.7C63.6163 26.7 53.7756 25.1918 46.6663 22.7621C43.1102 21.5467 40.2539 20.1062 38.2927 18.5215C36.3288 16.9346 35.3 15.2359 35.3 13.5C35.3 11.7641 36.3288 10.0654 38.2927 8.47853C40.2539 6.89377 43.1102 5.45332 46.6663 4.23794C53.7756 1.80818 63.6163 0.3 74.5 0.3C85.3837 0.3 95.2244 1.80818 102.334 4.23794C105.89 5.45332 108.746 6.89377 110.707 8.47853C112.671 10.0654 113.7 11.7641 113.7 13.5Z" stroke="black" stroke-width="0.6"/>
</svg>
