<svg width="32" height="32" viewBox="0 0 32 32" fill="none" xmlns="http://www.w3.org/2000/svg">
<path d="M24.2275 17.6547C24.5717 18.263 24.7505 18.9509 24.7461 19.6499C24.7416 20.3488 24.554 21.0343 24.202 21.6382C23.85 22.242 23.3459 22.7431 22.7399 23.0914C22.134 23.4397 21.4473 23.6231 20.7483 23.6233H16.7493C15.6887 23.6233 14.6715 23.202 13.9215 22.452C13.1715 21.702 12.7502 20.6849 12.7502 19.6243C12.7502 18.5636 13.1715 17.5465 13.9215 16.7965C14.6715 16.0465 15.6887 15.6252 16.7493 15.6252H17.749C18.0142 15.6252 18.2685 15.5199 18.456 15.3324C18.6435 15.1449 18.7488 14.8906 18.7488 14.6254C18.7488 14.3603 18.6435 14.106 18.456 13.9185C18.2685 13.731 18.0142 13.6257 17.749 13.6257H16.7493C15.1583 13.6257 13.6326 14.2577 12.5076 15.3826C11.3827 16.5076 10.7507 18.0333 10.7507 19.6243C10.7507 21.2152 11.3827 22.7409 12.5076 23.8659C13.6326 24.9908 15.1583 25.6228 16.7493 25.6228H20.7483C21.7995 25.6233 22.8324 25.3474 23.7434 24.8229C24.6545 24.2985 25.4117 23.5438 25.9392 22.6345C26.4668 21.7253 26.7461 20.6933 26.7492 19.6421C26.7524 18.5909 26.4792 17.5573 25.9571 16.645L25.9471 16.625C25.8795 16.512 25.7903 16.4136 25.6846 16.3351C25.5789 16.2567 25.4589 16.1998 25.3312 16.1678C25.2036 16.1358 25.0708 16.1292 24.9407 16.1485C24.8105 16.1677 24.6853 16.2124 24.5724 16.28C24.4595 16.3477 24.361 16.4368 24.2826 16.5425C24.2042 16.6482 24.1473 16.7683 24.1153 16.8959C24.0832 17.0236 24.0767 17.1563 24.0959 17.2865C24.1152 17.4167 24.1599 17.5418 24.2275 17.6547V17.6547ZM9.27103 15.5952C8.92679 14.9869 8.74801 14.299 8.75248 13.6001C8.75695 12.9011 8.94453 12.2156 9.29653 11.6117C9.64852 11.0079 10.1526 10.5068 10.7586 10.1585C11.3646 9.81023 12.0513 9.62682 12.7502 9.62661H16.7493C17.8099 9.62661 18.8271 10.0479 19.577 10.7979C20.327 11.5479 20.7483 12.565 20.7483 13.6257C20.7483 14.6863 20.327 15.7035 19.577 16.4534C18.8271 17.2034 17.8099 17.6247 16.7493 17.6247H15.7495C15.4843 17.6247 15.2301 17.7301 15.0426 17.9175C14.8551 18.105 14.7497 18.3593 14.7497 18.6245C14.7497 18.8896 14.8551 19.1439 15.0426 19.3314C15.2301 19.5189 15.4843 19.6243 15.7495 19.6243H16.7493C18.3402 19.6243 19.866 18.9923 20.9909 17.8673C22.1159 16.7424 22.7479 15.2166 22.7479 13.6257C22.7479 12.0347 22.1159 10.509 20.9909 9.38402C19.866 8.25907 18.3402 7.62708 16.7493 7.62708H12.7502C11.699 7.62666 10.6661 7.90251 9.75508 8.42697C8.84405 8.95144 8.08683 9.70611 7.55929 10.6154C7.03176 11.5246 6.75243 12.5566 6.74929 13.6078C6.74616 14.659 7.01933 15.6926 7.54143 16.605L7.55143 16.625C7.61905 16.7379 7.70824 16.8364 7.81391 16.9148C7.91959 16.9932 8.03968 17.0501 8.16733 17.0821C8.29498 17.1142 8.42769 17.1207 8.55788 17.1015C8.68808 17.0822 8.8132 17.0375 8.92611 16.9699C9.03902 16.9023 9.1375 16.8131 9.21595 16.7074C9.29439 16.6017 9.35124 16.4816 9.38327 16.354C9.4153 16.2263 9.42187 16.0936 9.40261 15.9634C9.38335 15.8332 9.33864 15.7081 9.27103 15.5952Z" fill="#121212"/>
</svg>