<svg width="32" height="32" viewBox="0 0 32 32" fill="none" xmlns="http://www.w3.org/2000/svg">
<path d="M16 5.00056C13.1135 4.97123 10.3334 6.08917 8.27073 8.10869C6.20809 10.1282 5.03166 12.884 5 15.7706C5.01112 18.0517 5.74494 20.2707 7.09606 22.1087C8.44718 23.9467 10.3461 25.3092 12.52 26.0006C13.07 26.1006 13.27 25.7706 13.27 25.4806V23.6506C10.21 24.3006 9.56 22.2106 9.56 22.2106C9.3563 21.5545 8.92323 20.9936 8.34 20.6306C7.34 19.9706 8.42 19.9806 8.42 19.9806C8.76565 20.0268 9.09635 20.1506 9.38731 20.3429C9.67826 20.5351 9.92192 20.7907 10.1 21.0906C10.4103 21.6287 10.9195 22.0234 11.518 22.1899C12.1165 22.3564 12.7564 22.2812 13.3 21.9806C13.3559 21.4329 13.6039 20.9228 14 20.5406C11.56 20.2706 9 19.3506 9 15.2206C8.97818 14.1432 9.37624 13.0997 10.11 12.3106C9.77583 11.3856 9.81529 10.3669 10.22 9.47056C10.22 9.47056 11.15 9.18056 13.22 10.5706C15.0219 10.0904 16.9181 10.0904 18.72 10.5706C20.82 9.18056 21.72 9.47056 21.72 9.47056C22.1247 10.3669 22.1642 11.3856 21.83 12.3106C22.5808 13.0852 23.0005 14.1218 23 15.2006C23 19.3406 20.42 20.2506 18 20.5206C18.265 20.7778 18.4697 21.0906 18.5994 21.4364C18.729 21.7822 18.7805 22.1525 18.75 22.5206V25.4706C18.75 25.8206 18.95 26.1006 19.5 25.9906C21.6678 25.295 23.5603 23.9321 24.9072 22.0967C26.2541 20.2613 26.9866 18.0471 27 15.7706C26.9683 12.884 25.7919 10.1282 23.7293 8.10869C21.6666 6.08917 18.8865 4.97123 16 5.00056" fill="#121212"/>
</svg>
