<svg width="26" height="24" viewBox="0 0 26 24" fill="none" xmlns="http://www.w3.org/2000/svg">
<path d="M5.5 0L6.9855 4.0145L11 5.5L6.9855 6.9855L5.5 11L4.0145 6.9855L0 5.5L4.0145 4.0145L5.5 0Z" fill="black"/>
<path d="M19.6177 12.7058L21.1032 16.7203L25.1177 18.2058L21.1032 19.6913L19.6177 23.7058L18.1322 19.6913L14.1177 18.2058L18.1322 16.7203L19.6177 12.7058Z" fill="black"/>
<path opacity="0.2" d="M19.6177 0L21.1032 4.0145L25.1177 5.5L21.1032 6.9855L19.6177 11L18.1322 6.9855L14.1177 5.5L18.1322 4.0145L19.6177 0Z" fill="black"/>
<path opacity="0.2" d="M5.5 12.7058L6.9855 16.7203L11 18.2058L6.9855 19.6913L5.5 23.7058L4.0145 19.6913L0 18.2058L4.0145 16.7203L5.5 12.7058Z" fill="black"/>
</svg>
