<svg width="24" height="24" viewBox="0 0 24 24" fill="none" xmlns="http://www.w3.org/2000/svg">
<path d="M24 0H0V24H24V0Z" fill="white" fill-opacity="0.01"/>
<path d="M7.32899 10.5618C7.98299 10.5618 8.5132 10.0277 8.5132 9.36878C8.5132 8.70994 7.98299 8.17578 7.32899 8.17578C6.67499 8.17578 6.14478 8.70994 6.14478 9.36878C6.14478 10.0277 6.67499 10.5618 7.32899 10.5618Z" fill="black"/>
<path d="M13.1185 10.5618C13.7725 10.5618 14.3027 10.0277 14.3027 9.36878C14.3027 8.70994 13.7725 8.17578 13.1185 8.17578C12.4645 8.17578 11.9343 8.70994 11.9343 9.36878C11.9343 10.0277 12.4645 10.5618 13.1185 10.5618Z" fill="black"/>
<path d="M18.8407 11.3503C18.7597 7.27855 15.0211 4 10.4211 4C5.77021 4 2 7.3513 2 11.4854C2 13.4363 2.83964 15.2129 4.21522 16.5452L3.58444 19.9185L7.32895 18.4888C8.97879 18.9765 10.5358 19.0984 12 18.8545" stroke="black" stroke-width="1.5" stroke-linecap="round" stroke-linejoin="round"/>
<path d="M19.7693 19.8739C18.8491 20.4825 17.7087 20.8426 16.4736 20.8426C13.4215 20.8426 10.9473 18.6433 10.9473 15.9303C10.9473 13.2174 13.4215 11.0181 16.4736 11.0181C19.5257 11.0181 21.9999 13.2174 21.9999 15.9303C21.9999 16.6787 21.8116 17.3881 21.4748 18.0229" stroke="black" stroke-width="1.5" stroke-linecap="round" stroke-linejoin="round"/>
<path d="M21.4749 18.0225L21.9999 20.8422L19.7693 19.8735" stroke="black" stroke-width="1.5" stroke-linecap="round" stroke-linejoin="round"/>
<path d="M18.1513 15.9999C17.6608 15.9999 17.2632 15.5993 17.2632 15.1052C17.2632 14.611 17.6608 14.2104 18.1513 14.2104C18.6419 14.2104 19.0395 14.611 19.0395 15.1052C19.0395 15.5993 18.6419 15.9999 18.1513 15.9999Z" fill="black"/>
<path d="M14.5986 15.9999C14.1081 15.9999 13.7104 15.5993 13.7104 15.1052C13.7104 14.611 14.1081 14.2104 14.5986 14.2104C15.0891 14.2104 15.4868 14.611 15.4868 15.1052C15.4868 15.5993 15.0891 15.9999 14.5986 15.9999Z" fill="black"/>
</svg>
